<svg width="695" height="137" viewBox="0 0 695 137" fill="none" xmlns="http://www.w3.org/2000/svg">
<g filter="url(#filter0_i_194_2)">
<path d="M79.0625 24.0156C79.0625 25.2135 78.8542 26.6458 78.4375 28.3125C78.0208 29.9271 77.3958 31.5156 76.5625 33.0781C75.7812 34.5885 74.7917 35.8906 73.5938 36.9844C72.3958 38.026 71.0156 38.5469 69.4531 38.5469C68.6198 38.5469 68.0729 38.2604 67.8125 37.6875C67.6042 37.1146 67.5 36.4896 67.5 35.8125C67.5 33.625 67.6823 31.4635 68.0469 29.3281C68.4115 27.1927 68.5938 24.9792 68.5938 22.6875C68.5938 20.4479 68.4115 18.2604 68.0469 16.125C67.6823 13.9375 67.0052 12.0104 66.0156 10.3438C65.0781 8.67708 63.724 7.34896 61.9531 6.35938C60.2344 5.31771 58.0208 4.79688 55.3125 4.79688C51.4062 4.79688 47.7865 5.70833 44.4531 7.53125C41.1719 9.35417 38.151 11.8281 35.3906 14.9531C32.6823 18.0781 30.2083 21.724 27.9688 25.8906C25.7812 30.0052 23.8281 34.3802 22.1094 39.0156C20.3906 43.651 18.9062 48.3906 17.6562 53.2344C16.4583 58.0781 15.4427 62.7656 14.6094 67.2969C13.8281 71.8281 13.2552 76.0729 12.8906 80.0312C12.526 83.9375 12.3438 87.2969 12.3438 90.1094C12.3438 92.6094 12.4479 95.2656 12.6562 98.0781C12.9167 100.891 13.3333 103.677 13.9062 106.438C14.5312 109.146 15.3385 111.75 16.3281 114.25C17.3177 116.75 18.5677 118.938 20.0781 120.812C21.5885 122.74 23.3854 124.25 25.4688 125.344C27.6042 126.49 30.0781 127.062 32.8906 127.062C37.0052 127.062 40.651 126.255 43.8281 124.641C47.0052 123.026 49.8177 120.865 52.2656 118.156C54.7656 115.448 56.901 112.323 58.6719 108.781C60.4948 105.292 62.0833 101.672 63.4375 97.9219C63.1771 96.099 62.9688 94.276 62.8125 92.4531C62.6562 90.5781 62.5781 88.7292 62.5781 86.9062C62.5781 85.6562 62.6302 84.1198 62.7344 82.2969C62.8385 80.4219 63.0208 78.4427 63.2812 76.3594C63.5417 74.224 63.9062 72.0885 64.375 69.9531C64.8438 67.7656 65.4167 65.7083 66.0938 63.7812C66.7708 61.8021 67.5781 60.0833 68.5156 58.625C69.4531 57.1146 70.5469 55.9688 71.7969 55.1875C72.6302 54.7188 73.4635 54.3021 74.2969 53.9375C75.1823 53.5208 76.1198 53.3125 77.1094 53.3125C77.8385 53.3125 78.4115 53.4688 78.8281 53.7812C79.2969 54.0938 79.5312 54.6146 79.5312 55.3438C79.5312 55.8125 79.4531 56.2812 79.2969 56.75C79.1927 57.1667 79.0365 57.6094 78.8281 58.0781C76.901 63.0781 75.4948 68.2083 74.6094 73.4688C73.724 78.7292 73.2812 84.0417 73.2812 89.4062C73.2812 91.2812 73.3854 93.5469 73.5938 96.2031C73.8542 98.8594 74.1927 101.672 74.6094 104.641C75.026 107.609 75.5469 110.656 76.1719 113.781C76.7969 116.906 77.5 119.875 78.2812 122.688C79.1146 125.5 80 128.052 80.9375 130.344C81.9271 132.635 82.9948 134.458 84.1406 135.812L82.7344 136.281C78.151 131.646 74.2969 126.411 71.1719 120.578C68.099 114.797 65.8333 108.729 64.375 102.375C61.9271 108.156 58.9583 113.443 55.4688 118.234C53.9062 120.266 52.1615 122.115 50.2344 123.781C48.3073 125.5 46.25 126.984 44.0625 128.234C41.875 129.484 39.5573 130.448 37.1094 131.125C34.7135 131.802 32.1875 132.141 29.5312 132.141C25.6771 132.141 22.2656 131.464 19.2969 130.109C16.3802 128.755 13.8542 126.958 11.7188 124.719C9.58333 122.479 7.78646 119.901 6.32812 116.984C4.92188 114.068 3.80208 111.047 2.96875 107.922C2.13542 104.745 1.53646 101.568 1.17188 98.3906C0.807292 95.2135 0.625 92.2708 0.625 89.5625C0.625 83.5208 1.17188 77.1406 2.26562 70.4219C3.41146 63.7031 5.05208 57.0625 7.1875 50.5C9.32292 43.8854 11.9531 37.5833 15.0781 31.5938C18.2552 25.5521 21.875 20.2396 25.9375 15.6562C30 11.0729 34.5052 7.42708 39.4531 4.71875C44.401 2.01042 49.7396 0.65625 55.4688 0.65625C58.9583 0.65625 62.1354 1.22917 65 2.375C67.9167 3.46875 70.4167 5.05729 72.5 7.14062C74.5833 9.17188 76.1979 11.6198 77.3438 14.4844C78.4896 17.349 79.0625 20.526 79.0625 24.0156ZM162.734 61.75C162.734 64.6146 162.448 67.8438 161.875 71.4375C161.302 74.9792 160.469 78.5729 159.375 82.2188C158.333 85.8646 157.057 89.4062 155.547 92.8438C154.089 96.2812 152.422 99.3542 150.547 102.062C148.724 104.719 146.745 106.854 144.609 108.469C142.526 110.083 140.339 110.891 138.047 110.891C136.693 110.891 135.365 110.083 134.062 108.469C132.812 106.906 131.589 104.849 130.391 102.297C129.245 99.7448 128.177 96.9062 127.188 93.7812C126.198 90.6562 125.286 87.5573 124.453 84.4844C123.672 87.349 122.812 90.3438 121.875 93.4688C120.938 96.5938 119.792 99.4583 118.438 102.062C117.083 104.615 115.495 106.724 113.672 108.391C111.849 110.057 109.688 110.891 107.188 110.891C105.573 110.891 104.089 110.135 102.734 108.625C101.432 107.115 100.234 105.214 99.1406 102.922C98.099 100.578 97.1354 98 96.25 95.1875C95.4167 92.3229 94.6875 89.5625 94.0625 86.9062C93.4896 84.1979 92.9948 81.75 92.5781 79.5625C92.1615 77.375 91.849 75.7604 91.6406 74.7188C91.5885 74.5625 91.5104 74.1719 91.4062 73.5469C91.3021 72.9219 91.1719 72.2708 91.0156 71.5938C90.8594 70.9167 90.651 70.3177 90.3906 69.7969C90.1823 69.224 89.974 68.9375 89.7656 68.9375C88.8802 68.9375 87.8385 69.224 86.6406 69.7969C85.4948 70.3177 84.5573 70.7865 83.8281 71.2031L83.3594 70.4219C84.0885 69.6406 84.974 68.8333 86.0156 68C87.1094 67.1146 88.2552 66.3073 89.4531 65.5781C90.7031 64.849 91.9531 64.25 93.2031 63.7812C94.5052 63.3125 95.7031 63.0781 96.7969 63.0781C97.7344 63.0781 98.5677 63.4948 99.2969 64.3281C100.078 65.1094 100.729 66.125 101.25 67.375C101.771 68.625 102.214 70.0312 102.578 71.5938C102.995 73.1042 103.307 74.6146 103.516 76.125C103.776 77.5833 103.958 78.9115 104.062 80.1094C104.219 81.3073 104.349 82.2188 104.453 82.8438C104.505 83.2604 104.635 84.1198 104.844 85.4219C105.052 86.6719 105.312 88.1562 105.625 89.875C105.938 91.5417 106.276 93.3125 106.641 95.1875C107.057 97.0104 107.5 98.7031 107.969 100.266C108.438 101.776 108.906 103.052 109.375 104.094C109.896 105.083 110.391 105.578 110.859 105.578C112.318 105.578 113.672 104.667 114.922 102.844C116.172 100.969 117.292 98.651 118.281 95.8906C119.323 93.1302 120.234 90.1875 121.016 87.0625C121.797 83.9375 122.422 81.0729 122.891 78.4688C122.37 76.3854 121.927 74.5365 121.562 72.9219C121.198 71.2552 120.885 69.9271 120.625 68.9375C120.521 68.7292 120.469 68.3646 120.469 67.8438C120.469 67.1146 120.729 66.4375 121.25 65.8125C121.771 65.1875 122.422 64.6406 123.203 64.1719C123.984 63.7031 124.792 63.3385 125.625 63.0781C126.458 62.8177 127.188 62.6875 127.812 62.6875C128.854 62.6875 129.714 63.1823 130.391 64.1719C131.068 65.1094 131.615 66.2292 132.031 67.5312C132.448 68.8333 132.76 70.1615 132.969 71.5156C133.229 72.8177 133.438 73.8333 133.594 74.5625C133.646 74.9271 133.802 75.9427 134.062 77.6094C134.375 79.276 134.766 81.2552 135.234 83.5469C135.703 85.8385 136.198 88.2865 136.719 90.8906C137.292 93.4427 137.865 95.8125 138.438 98C139.062 100.188 139.661 102.01 140.234 103.469C140.807 104.875 141.328 105.578 141.797 105.578C143.203 105.578 144.505 105.109 145.703 104.172C146.901 103.182 147.969 101.906 148.906 100.344C149.896 98.7292 150.729 96.9062 151.406 94.875C152.135 92.7917 152.734 90.6302 153.203 88.3906C153.724 86.151 154.089 83.9375 154.297 81.75C154.557 79.5104 154.688 77.4271 154.688 75.5C154.688 73.8854 154.583 72.1406 154.375 70.2656C154.167 68.3385 153.828 66.4375 153.359 64.5625C152.891 62.6875 152.266 60.8906 151.484 59.1719C150.755 57.401 149.87 55.8906 148.828 54.6406C147.786 53.3385 146.589 52.349 145.234 51.6719C143.88 50.9948 142.344 50.7604 140.625 50.9688L140.469 50.2656C141.823 49.5885 143.255 49.0677 144.766 48.7031C146.276 48.3385 147.839 48.1562 149.453 48.1562C153.88 48.1562 157.188 49.3802 159.375 51.8281C161.615 54.224 162.734 57.5312 162.734 61.75ZM205.391 67.0625C205.391 67.6354 205.182 68.1562 204.766 68.625C204.349 69.0417 203.854 69.25 203.281 69.25C202.812 69.25 202.318 69.1198 201.797 68.8594C201.276 68.5469 200.677 68.2083 200 67.8438C199.375 67.4792 198.62 67.1667 197.734 66.9062C196.901 66.5938 195.938 66.4375 194.844 66.4375C192.292 66.4375 190 67.2448 187.969 68.8594C185.99 70.4219 184.297 72.375 182.891 74.7188C181.536 77.0625 180.495 79.5625 179.766 82.2188C179.036 84.875 178.672 87.2708 178.672 89.4062C178.672 90.9167 178.802 92.401 179.062 93.8594C179.323 95.2656 179.766 96.5677 180.391 97.7656C181.068 98.9115 181.979 99.849 183.125 100.578C184.271 101.255 185.729 101.594 187.5 101.594C189.375 101.594 191.172 101.255 192.891 100.578C194.609 99.849 196.224 98.9115 197.734 97.7656C197.786 96.099 198.047 94.3542 198.516 92.5312C199.036 90.6562 199.688 88.8333 200.469 87.0625C201.25 85.2396 202.135 83.5208 203.125 81.9062C204.167 80.2917 205.234 78.8594 206.328 77.6094L207.344 78.2344C206.771 80.0052 206.354 81.8281 206.094 83.7031C205.833 85.5781 205.703 87.4271 205.703 89.25C205.703 91.125 205.859 92.8958 206.172 94.5625C206.484 96.2292 207.031 97.6875 207.812 98.9375C208.594 100.135 209.661 101.099 211.016 101.828C212.37 102.505 214.115 102.844 216.25 102.844C218.854 102.844 221.25 102.245 223.438 101.047C225.625 99.849 227.552 98.3385 229.219 96.5156L229.844 96.8281C228.906 98.651 227.682 100.396 226.172 102.062C224.661 103.729 222.969 105.24 221.094 106.594C219.271 107.896 217.318 108.938 215.234 109.719C213.151 110.5 211.094 110.891 209.062 110.891C206.198 110.891 203.854 110.057 202.031 108.391C200.208 106.776 198.958 104.719 198.281 102.219C196.094 104.406 193.646 106.255 190.938 107.766C188.281 109.224 185.469 109.953 182.5 109.953C180.312 109.953 178.359 109.536 176.641 108.703C174.974 107.922 173.568 106.854 172.422 105.5C171.276 104.146 170.391 102.557 169.766 100.734C169.193 98.8594 168.906 96.9062 168.906 94.875C168.906 92.5312 169.271 90.1354 170 87.6875C170.781 85.1875 171.823 82.7396 173.125 80.3438C174.479 77.9479 176.068 75.6823 177.891 73.5469C179.714 71.4115 181.693 69.5365 183.828 67.9219C186.016 66.3073 188.307 65.0312 190.703 64.0938C193.099 63.1562 195.547 62.6875 198.047 62.6875C198.62 62.6875 199.323 62.7656 200.156 62.9219C200.99 63.026 201.797 63.2344 202.578 63.5469C203.359 63.8594 204.01 64.3021 204.531 64.875C205.104 65.4479 205.391 66.1771 205.391 67.0625ZM286.172 96.8281C285.234 98.9115 284.036 100.786 282.578 102.453C281.172 104.12 279.635 105.552 277.969 106.75C276.302 107.896 274.583 108.781 272.812 109.406C271.042 110.083 269.349 110.422 267.734 110.422C264.714 110.422 262.161 109.901 260.078 108.859C257.995 107.818 256.302 106.411 255 104.641C253.698 102.87 252.76 100.786 252.188 98.3906C251.615 95.9948 251.328 93.4427 251.328 90.7344C251.328 88.651 251.484 86.4896 251.797 84.25C252.109 82.0104 252.552 79.849 253.125 77.7656C253.229 77.4531 253.333 77.0885 253.438 76.6719C253.542 76.2031 253.594 75.8125 253.594 75.5C253.594 75.2396 253.438 75.0312 253.125 74.875C252.24 74.5625 251.302 74.276 250.312 74.0156C249.323 73.7031 248.333 73.3646 247.344 73C246.406 72.6354 245.495 72.2188 244.609 71.75C243.776 71.2812 243.047 70.6823 242.422 69.9531C242.37 73.0781 241.849 76.2552 240.859 79.4844C239.87 82.6615 238.542 85.7344 236.875 88.7031C235.26 91.6198 233.359 94.3542 231.172 96.9062C228.984 99.4583 226.667 101.672 224.219 103.547L223.438 102.766C224.948 101.099 226.328 99.1198 227.578 96.8281C228.828 94.5365 229.896 92.1406 230.781 89.6406C231.667 87.1406 232.344 84.6146 232.812 82.0625C233.333 79.5104 233.594 77.1146 233.594 74.875C233.594 73.7292 233.49 72.6615 233.281 71.6719C233.073 70.6302 232.839 69.6406 232.578 68.7031C232.37 67.7656 232.161 66.8802 231.953 66.0469C231.745 65.1615 231.641 64.276 231.641 63.3906C231.641 61.9323 232.109 60.7865 233.047 59.9531C233.984 59.1198 235.182 58.7031 236.641 58.7031C237.422 58.7031 238.021 58.9375 238.438 59.4062C238.854 59.8229 239.219 60.3438 239.531 60.9688C239.844 61.5938 240.208 62.2448 240.625 62.9219C241.042 63.599 241.641 64.1719 242.422 64.6406C243.411 65.2135 244.661 65.6302 246.172 65.8906C247.682 66.151 249.271 66.3854 250.938 66.5938C252.604 66.8021 254.271 67.0104 255.938 67.2188C257.604 67.4271 259.089 67.7917 260.391 68.3125C261.745 68.7812 262.839 69.4583 263.672 70.3438C264.505 71.1771 264.922 72.3229 264.922 73.7812C264.922 74.5104 264.844 75.2396 264.688 75.9688C264.583 76.6458 264.401 77.2969 264.141 77.9219C263.516 80.1094 262.969 82.349 262.5 84.6406C262.083 86.8802 261.875 89.1198 261.875 91.3594C261.875 93.2865 262.005 95.0573 262.266 96.6719C262.578 98.2344 263.125 99.5885 263.906 100.734C264.688 101.88 265.729 102.766 267.031 103.391C268.333 104.016 270 104.328 272.031 104.328C274.948 104.328 277.5 103.625 279.688 102.219C281.875 100.76 283.802 98.8594 285.469 96.5156L286.172 96.8281ZM354.609 96.8281C353.776 98.5469 352.734 100.109 351.484 101.516C350.234 102.87 348.828 104.042 347.266 105.031C345.703 105.969 344.036 106.698 342.266 107.219C340.495 107.74 338.646 108 336.719 108C332.656 108 329.193 107.01 326.328 105.031C323.516 103.052 321.146 100.474 319.219 97.2969C317.812 98.8594 316.25 100.422 314.531 101.984C312.865 103.495 311.068 104.849 309.141 106.047C307.266 107.193 305.312 108.13 303.281 108.859C301.25 109.589 299.219 109.953 297.188 109.953C294.74 109.953 292.552 109.458 290.625 108.469C288.698 107.479 287.057 106.177 285.703 104.562C284.349 102.896 283.307 101.021 282.578 98.9375C281.849 96.8021 281.484 94.5885 281.484 92.2969C281.484 88.8594 282.24 85.3958 283.75 81.9062C285.312 78.4167 287.344 75.2656 289.844 72.4531C292.396 69.5885 295.312 67.2708 298.594 65.5C301.875 63.7292 305.286 62.8438 308.828 62.8438C309.87 62.8438 310.781 62.9479 311.562 63.1562V59.875C311.562 58.3646 311.615 56.3594 311.719 53.8594C311.823 51.3594 312.031 48.599 312.344 45.5781C312.656 42.5052 313.047 39.3021 313.516 35.9688C314.036 32.5833 314.688 29.25 315.469 25.9688C316.302 22.6354 317.266 19.4844 318.359 16.5156C319.453 13.4948 320.729 10.8646 322.188 8.625C323.646 6.33333 325.312 4.51042 327.188 3.15625C329.062 1.80208 331.172 1.125 333.516 1.125C336.276 1.125 338.516 1.93229 340.234 3.54688C341.953 5.16146 343.307 7.16667 344.297 9.5625C345.286 11.9062 345.938 14.4062 346.25 17.0625C346.615 19.7188 346.797 22.0885 346.797 24.1719C346.797 26.8802 346.536 30.0312 346.016 33.625C345.495 37.1667 344.766 40.9427 343.828 44.9531C342.891 48.9115 341.771 52.974 340.469 57.1406C339.167 61.3073 337.76 65.3177 336.25 69.1719C334.74 73.026 333.099 76.6198 331.328 79.9531C329.609 83.2344 327.865 86.0208 326.094 88.3125C326.771 90.3438 327.578 92.2188 328.516 93.9375C329.505 95.6562 330.651 97.1406 331.953 98.3906C333.255 99.6406 334.74 100.63 336.406 101.359C338.073 102.036 339.974 102.375 342.109 102.375C347.005 102.375 351.016 100.422 354.141 96.5156L354.609 96.8281ZM322.578 53.3125C322.578 55.1875 322.578 57.375 322.578 59.875C322.578 62.3229 322.63 64.9271 322.734 67.6875C322.891 70.4479 323.125 73.2865 323.438 76.2031C323.802 79.0677 324.323 81.8542 325 84.5625C327.188 80.3438 329.193 75.7344 331.016 70.7344C332.839 65.6823 334.401 60.526 335.703 55.2656C337.057 49.9531 338.099 44.6667 338.828 39.4062C339.557 34.1458 339.922 29.1719 339.922 24.4844C339.922 23.4948 339.87 22.0625 339.766 20.1875C339.661 18.3125 339.375 16.4635 338.906 14.6406C338.438 12.7656 337.734 11.151 336.797 9.79688C335.859 8.39062 334.583 7.6875 332.969 7.6875C331.719 7.6875 330.599 8.28646 329.609 9.48438C328.62 10.6302 327.76 12.1927 327.031 14.1719C326.302 16.099 325.677 18.3125 325.156 20.8125C324.688 23.3125 324.271 25.9167 323.906 28.625C323.594 31.3333 323.333 34.0156 323.125 36.6719C322.969 39.3281 322.839 41.8021 322.734 44.0938C322.682 46.3333 322.63 48.2865 322.578 49.9531C322.578 51.5677 322.578 52.6875 322.578 53.3125ZM302.891 101.438C305.859 101.438 308.594 100.865 311.094 99.7188C313.646 98.5729 315.964 97.0625 318.047 95.1875C317.057 93.2604 316.198 91.2031 315.469 89.0156C314.792 86.776 314.193 84.5365 313.672 82.2969C313.203 80.0052 312.812 77.7135 312.5 75.4219C312.24 73.1302 312.031 70.9167 311.875 68.7812C311.25 68.1042 310.469 67.5573 309.531 67.1406C308.594 66.6719 307.448 66.4375 306.094 66.4375C303.646 66.4375 301.458 67.1146 299.531 68.4688C297.656 69.7708 296.068 71.4375 294.766 73.4688C293.464 75.4479 292.474 77.6354 291.797 80.0312C291.12 82.375 290.781 84.6146 290.781 86.75C290.781 88.7292 290.99 90.6302 291.406 92.4531C291.875 94.224 292.604 95.7865 293.594 97.1406C294.583 98.4427 295.833 99.4844 297.344 100.266C298.906 101.047 300.755 101.438 302.891 101.438ZM394.453 91.2031C394.453 93.9115 393.958 96.4635 392.969 98.8594C391.979 101.255 390.599 103.339 388.828 105.109C387.057 106.88 384.974 108.286 382.578 109.328C380.234 110.37 377.682 110.891 374.922 110.891C373.099 110.891 371.302 110.604 369.531 110.031C367.76 109.458 366.12 108.651 364.609 107.609C363.151 106.516 361.875 105.214 360.781 103.703C359.688 102.193 358.906 100.526 358.438 98.7031L360.234 98.2344C361.589 99.901 363.151 101.281 364.922 102.375C366.745 103.469 368.802 104.016 371.094 104.016C373.021 104.016 374.792 103.599 376.406 102.766C378.073 101.932 379.479 100.839 380.625 99.4844C381.823 98.1302 382.734 96.5677 383.359 94.7969C384.036 92.974 384.375 91.125 384.375 89.25C384.375 87.0104 384.062 85.1615 383.438 83.7031C382.812 82.1927 381.979 80.9427 380.938 79.9531C379.948 78.9115 378.828 78.026 377.578 77.2969C376.328 76.5156 375.052 75.7344 373.75 74.9531C372.5 74.1719 371.276 73.2865 370.078 72.2969C368.932 71.3073 367.943 70.0312 367.109 68.4688C367.057 71.5417 366.536 74.7708 365.547 78.1562C364.557 81.5417 363.203 84.8229 361.484 88C359.818 91.1771 357.891 94.1458 355.703 96.9062C353.516 99.6667 351.198 101.984 348.75 103.859L348.125 102.766C349.792 100.995 351.25 98.7812 352.5 96.125C353.75 93.4688 354.766 90.6823 355.547 87.7656C356.38 84.7969 356.979 81.8281 357.344 78.8594C357.76 75.8906 357.969 73.1823 357.969 70.7344C357.969 69.4323 357.839 68.1562 357.578 66.9062C357.318 65.6562 357.188 64.4323 357.188 63.2344C357.188 61.776 357.604 60.6562 358.438 59.875C359.323 59.0938 360.443 58.7031 361.797 58.7031C362.839 58.7031 363.672 58.9375 364.297 59.4062C364.922 59.875 365.495 60.5 366.016 61.2812C366.536 62.0104 367.057 62.8698 367.578 63.8594C368.099 64.7969 368.75 65.7865 369.531 66.8281C370.365 67.8177 371.38 68.8073 372.578 69.7969C373.828 70.7344 375.417 71.5677 377.344 72.2969C379.583 73.1302 381.719 74.0938 383.75 75.1875C385.833 76.2292 387.656 77.4792 389.219 78.9375C390.833 80.3958 392.109 82.1406 393.047 84.1719C393.984 86.151 394.453 88.4948 394.453 91.2031ZM494.688 110.422C490.469 109.276 486.172 108.547 481.797 108.234C477.474 107.974 473.177 107.844 468.906 107.844C465.469 107.844 461.953 107.922 458.359 108.078C454.818 108.286 451.354 108.781 447.969 109.562H446.875C445.417 109.562 444.271 109.042 443.438 108C442.604 106.906 442.188 105.682 442.188 104.328C442.188 102.922 442.526 101.802 443.203 100.969C443.932 100.083 444.818 99.4062 445.859 98.9375C446.901 98.4688 448.047 98.1562 449.297 98C450.599 97.8438 451.797 97.7656 452.891 97.7656H453.672C458.151 95.2656 462.292 92.2188 466.094 88.625C469.948 85.0312 473.281 81.0469 476.094 76.6719C478.906 72.2969 481.094 67.6354 482.656 62.6875C484.271 57.7396 485.078 52.6875 485.078 47.5312C485.078 45.1875 484.87 42.6875 484.453 40.0312C484.036 37.375 483.411 34.7448 482.578 32.1406C481.745 29.4844 480.677 26.9583 479.375 24.5625C478.073 22.1667 476.51 20.0573 474.688 18.2344C472.865 16.3594 470.807 14.875 468.516 13.7812C466.224 12.6875 463.646 12.1406 460.781 12.1406C458.594 12.1406 456.484 12.5312 454.453 13.3125C452.474 14.0938 450.703 15.1875 449.141 16.5938C447.63 18 446.406 19.6667 445.469 21.5938C444.583 23.4688 444.141 25.5 444.141 27.6875C444.141 29.3542 444.323 30.9167 444.688 32.375C445.104 33.7812 445.651 35.1354 446.328 36.4375C447.057 37.6875 447.865 38.9115 448.75 40.1094C449.688 41.2552 450.703 42.401 451.797 43.5469C452.422 44.276 452.917 44.9792 453.281 45.6562C453.698 46.2812 453.906 47.1146 453.906 48.1562C453.906 48.9375 453.776 49.7448 453.516 50.5781C453.255 51.4115 452.891 52.1927 452.422 52.9219C451.953 53.599 451.354 54.1719 450.625 54.6406C449.948 55.1094 449.167 55.3438 448.281 55.3438C446.25 55.3438 444.583 54.6146 443.281 53.1562C441.979 51.6979 440.938 49.9531 440.156 47.9219C439.427 45.8385 438.906 43.6771 438.594 41.4375C438.333 39.1979 438.203 37.3229 438.203 35.8125C438.203 32.7396 438.542 29.7708 439.219 26.9062C439.896 24.0417 440.938 21.3594 442.344 18.8594C443.75 16.3073 445.495 14.0156 447.578 11.9844C449.714 9.90104 452.188 8.15625 455 6.75C456.667 5.91667 458.438 5.29167 460.312 4.875C462.24 4.40625 464.193 4.17188 466.172 4.17188C468.88 4.17188 471.432 4.58854 473.828 5.42188C476.276 6.20312 478.542 7.32292 480.625 8.78125C482.708 10.1875 484.557 11.9062 486.172 13.9375C487.839 15.9167 489.245 18.1042 490.391 20.5C491.641 23.1562 492.5 25.9427 492.969 28.8594C493.49 31.776 493.75 34.6927 493.75 37.6094C493.75 43.651 492.917 49.5625 491.25 55.3438C489.635 61.0729 487.344 66.5417 484.375 71.75C481.458 76.9583 477.943 81.8021 473.828 86.2812C469.766 90.7083 465.286 94.6406 460.391 98.0781C463.411 98.3385 466.484 98.7812 469.609 99.4062C472.734 99.9792 475.807 100.734 478.828 101.672C481.849 102.557 484.74 103.625 487.5 104.875C490.312 106.125 492.917 107.531 495.312 109.094L494.688 110.422ZM570 57.7656C570 61.151 569.714 64.8229 569.141 68.7812C568.568 72.6875 567.656 76.6198 566.406 80.5781C565.208 84.4844 563.646 88.2604 561.719 91.9062C559.844 95.5521 557.578 98.7812 554.922 101.594C552.318 104.406 549.323 106.646 545.938 108.312C542.552 110.031 538.75 110.891 534.531 110.891C530.417 110.891 526.745 110.109 523.516 108.547C520.339 107.036 517.526 104.979 515.078 102.375C512.682 99.7708 510.651 96.776 508.984 93.3906C507.37 90.0052 506.042 86.4635 505 82.7656C503.958 79.0677 503.203 75.3438 502.734 71.5938C502.266 67.8438 502.031 64.3021 502.031 60.9688C502.031 57.4271 502.188 53.7812 502.5 50.0312C502.865 46.2812 503.438 42.5573 504.219 38.8594C505.052 35.1615 506.12 31.5417 507.422 28C508.776 24.4583 510.443 21.151 512.422 18.0781C514.401 14.9531 516.719 12.1406 519.375 9.64062C522.083 7.14062 525.208 5.05729 528.75 3.39062L529.219 4.32812C525.677 7.40104 522.786 11.151 520.547 15.5781C518.307 19.9531 516.536 24.5885 515.234 29.4844C513.932 34.3802 513.021 39.3542 512.5 44.4062C512.031 49.4583 511.797 54.1719 511.797 58.5469C511.797 61.3073 511.953 64.4062 512.266 67.8438C512.63 71.2812 513.203 74.7969 513.984 78.3906C514.818 81.9323 515.911 85.4219 517.266 88.8594C518.672 92.2448 520.417 95.2656 522.5 97.9219C524.583 100.578 527.031 102.714 529.844 104.328C532.708 105.943 536.016 106.75 539.766 106.75C542.682 106.75 545.234 105.995 547.422 104.484C549.609 102.922 551.484 100.917 553.047 98.4688C554.609 95.9688 555.885 93.1823 556.875 90.1094C557.917 86.9844 558.724 83.8333 559.297 80.6562C559.922 77.4792 560.339 74.4323 560.547 71.5156C560.807 68.5469 560.938 65.9948 560.938 63.8594C560.938 61.5677 560.755 58.7552 560.391 55.4219C560.078 52.0885 559.531 48.5729 558.75 44.875C558.021 41.125 557.057 37.401 555.859 33.7031C554.661 30.0052 553.177 26.6979 551.406 23.7812C549.688 20.8125 547.656 18.4167 545.312 16.5938C542.969 14.7188 540.286 13.7812 537.266 13.7812C534.922 13.7812 532.917 14.4062 531.25 15.6562C529.583 16.8542 528.229 18.3906 527.188 20.2656C526.198 22.0885 525.495 24.0938 525.078 26.2812C524.714 28.4688 524.661 30.526 524.922 32.4531L524.141 32.6094C523.984 31.6719 523.854 30.7604 523.75 29.875C523.646 28.9375 523.594 28 523.594 27.0625C523.594 24.4583 523.932 21.9583 524.609 19.5625C525.286 17.1146 526.302 14.9531 527.656 13.0781C529.01 11.2031 530.703 9.71875 532.734 8.625C534.818 7.47917 537.266 6.90625 540.078 6.90625C543.984 6.90625 547.448 7.81771 550.469 9.64062C553.49 11.4115 556.12 13.7031 558.359 16.5156C560.651 19.3281 562.552 22.4531 564.062 25.8906C565.573 29.3281 566.719 32.6875 567.5 35.9688C568.385 39.5625 569.01 43.1823 569.375 46.8281C569.792 50.4219 570 54.0677 570 57.7656ZM632.344 110.422C628.125 109.276 623.828 108.547 619.453 108.234C615.13 107.974 610.833 107.844 606.562 107.844C603.125 107.844 599.609 107.922 596.016 108.078C592.474 108.286 589.01 108.781 585.625 109.562H584.531C583.073 109.562 581.927 109.042 581.094 108C580.26 106.906 579.844 105.682 579.844 104.328C579.844 102.922 580.182 101.802 580.859 100.969C581.589 100.083 582.474 99.4062 583.516 98.9375C584.557 98.4688 585.703 98.1562 586.953 98C588.255 97.8438 589.453 97.7656 590.547 97.7656H591.328C595.807 95.2656 599.948 92.2188 603.75 88.625C607.604 85.0312 610.938 81.0469 613.75 76.6719C616.562 72.2969 618.75 67.6354 620.312 62.6875C621.927 57.7396 622.734 52.6875 622.734 47.5312C622.734 45.1875 622.526 42.6875 622.109 40.0312C621.693 37.375 621.068 34.7448 620.234 32.1406C619.401 29.4844 618.333 26.9583 617.031 24.5625C615.729 22.1667 614.167 20.0573 612.344 18.2344C610.521 16.3594 608.464 14.875 606.172 13.7812C603.88 12.6875 601.302 12.1406 598.438 12.1406C596.25 12.1406 594.141 12.5312 592.109 13.3125C590.13 14.0938 588.359 15.1875 586.797 16.5938C585.286 18 584.062 19.6667 583.125 21.5938C582.24 23.4688 581.797 25.5 581.797 27.6875C581.797 29.3542 581.979 30.9167 582.344 32.375C582.76 33.7812 583.307 35.1354 583.984 36.4375C584.714 37.6875 585.521 38.9115 586.406 40.1094C587.344 41.2552 588.359 42.401 589.453 43.5469C590.078 44.276 590.573 44.9792 590.938 45.6562C591.354 46.2812 591.562 47.1146 591.562 48.1562C591.562 48.9375 591.432 49.7448 591.172 50.5781C590.911 51.4115 590.547 52.1927 590.078 52.9219C589.609 53.599 589.01 54.1719 588.281 54.6406C587.604 55.1094 586.823 55.3438 585.938 55.3438C583.906 55.3438 582.24 54.6146 580.938 53.1562C579.635 51.6979 578.594 49.9531 577.812 47.9219C577.083 45.8385 576.562 43.6771 576.25 41.4375C575.99 39.1979 575.859 37.3229 575.859 35.8125C575.859 32.7396 576.198 29.7708 576.875 26.9062C577.552 24.0417 578.594 21.3594 580 18.8594C581.406 16.3073 583.151 14.0156 585.234 11.9844C587.37 9.90104 589.844 8.15625 592.656 6.75C594.323 5.91667 596.094 5.29167 597.969 4.875C599.896 4.40625 601.849 4.17188 603.828 4.17188C606.536 4.17188 609.089 4.58854 611.484 5.42188C613.932 6.20312 616.198 7.32292 618.281 8.78125C620.365 10.1875 622.214 11.9062 623.828 13.9375C625.495 15.9167 626.901 18.1042 628.047 20.5C629.297 23.1562 630.156 25.9427 630.625 28.8594C631.146 31.776 631.406 34.6927 631.406 37.6094C631.406 43.651 630.573 49.5625 628.906 55.3438C627.292 61.0729 625 66.5417 622.031 71.75C619.115 76.9583 615.599 81.8021 611.484 86.2812C607.422 90.7083 602.943 94.6406 598.047 98.0781C601.068 98.3385 604.141 98.7812 607.266 99.4062C610.391 99.9792 613.464 100.734 616.484 101.672C619.505 102.557 622.396 103.625 625.156 104.875C627.969 106.125 630.573 107.531 632.969 109.094L632.344 110.422ZM640.078 70.5C640.13 70.5521 640.234 70.5781 640.391 70.5781C643.203 67.349 645.443 63.8333 647.109 60.0312C648.828 56.2292 650.182 52.1406 651.172 47.7656C652.214 43.3906 653.021 38.7292 653.594 33.7812C654.219 28.7812 654.844 23.4948 655.469 17.9219C655.573 16.9323 655.833 15.9948 656.25 15.1094C656.719 14.224 657.292 13.4688 657.969 12.8438C658.646 12.2188 659.427 11.776 660.312 11.5156C661.198 11.2552 662.135 11.2812 663.125 11.5938C664.115 11.8542 664.844 12.349 665.312 13.0781C665.781 13.7552 666.094 14.5625 666.25 15.5C666.458 16.3854 666.536 17.349 666.484 18.3906C666.432 19.4323 666.354 20.4219 666.25 21.3594C665.833 25.474 665.052 29.7448 663.906 34.1719C662.76 38.5469 661.25 42.9219 659.375 47.2969C657.5 51.6719 655.26 55.9427 652.656 60.1094C650.052 64.224 647.083 68.026 643.75 71.5156C646.042 72.0365 648.49 72.5312 651.094 73C653.698 73.4167 656.328 73.8073 658.984 74.1719C661.641 74.4844 664.297 74.7448 666.953 74.9531C669.661 75.1615 672.24 75.2917 674.688 75.3438C674.271 70.7604 673.958 66.2552 673.75 61.8281C673.542 57.401 673.438 53.2083 673.438 49.25C673.438 47.5833 673.438 45.5521 673.438 43.1562C673.49 40.7083 673.594 38.1042 673.75 35.3438C673.958 32.5312 674.271 29.6927 674.688 26.8281C675.104 23.9115 675.677 21.1771 676.406 18.625C677.135 16.0208 678.047 13.7031 679.141 11.6719C680.286 9.64062 681.667 8.10417 683.281 7.0625C684.115 6.48958 685.052 5.99479 686.094 5.57812C687.135 5.16146 688.177 4.95312 689.219 4.95312C689.844 4.95312 690.391 5.13542 690.859 5.5C691.328 5.8125 691.562 6.33333 691.562 7.0625C691.562 7.84375 691.406 8.625 691.094 9.40625C689.74 12.4792 688.594 15.7865 687.656 19.3281C686.719 22.8177 685.938 26.3854 685.312 30.0312C684.688 33.6771 684.193 37.2708 683.828 40.8125C683.464 44.3021 683.177 47.5573 682.969 50.5781C682.76 53.5469 682.63 56.1771 682.578 58.4688C682.526 60.7083 682.5 62.401 682.5 63.5469C682.5 65.0052 682.5 66.3073 682.5 67.4531C682.552 68.5469 682.578 69.5625 682.578 70.5C682.578 71.3854 682.578 72.2188 682.578 73C682.63 73.7812 682.656 74.5625 682.656 75.3438C683.802 75.2396 684.818 75.1354 685.703 75.0312C686.641 74.875 687.526 74.7188 688.359 74.5625C689.193 74.4062 690.052 74.224 690.938 74.0156C691.823 73.8073 692.812 73.5469 693.906 73.2344L694.688 74.7969C694.062 75.1094 693.281 75.474 692.344 75.8906C691.458 76.2552 690.469 76.6458 689.375 77.0625C688.333 77.4792 687.24 77.8958 686.094 78.3125C684.948 78.6771 683.802 79.0156 682.656 79.3281C682.656 85.1615 682.734 90.8906 682.891 96.5156C683.099 102.141 683.49 107.792 684.062 113.469L682.656 113.938C680.729 109.198 679.167 104.042 677.969 98.4688C676.823 92.8958 675.911 87.1406 675.234 81.2031C671.641 81.9844 668.021 82.5312 664.375 82.8438C660.729 83.1042 657.109 83.2344 653.516 83.2344C652.63 83.2344 651.51 83.2344 650.156 83.2344C648.854 83.2344 647.474 83.1823 646.016 83.0781C644.557 82.9219 643.099 82.7135 641.641 82.4531C640.182 82.1406 638.88 81.6979 637.734 81.125C636.589 80.5521 635.651 79.8229 634.922 78.9375C634.193 78 633.828 76.8542 633.828 75.5C633.828 75.0312 633.932 74.4583 634.141 73.7812C634.349 73.0521 634.688 72.401 635.156 71.8281C635.625 71.2031 636.25 70.7604 637.031 70.5C637.865 70.1875 638.88 70.1875 640.078 70.5Z" fill="#20C997"/>
</g>
<defs>
<filter id="filter0_i_194_2" x="0.625" y="0.65625" width="694.062" height="139.625" filterUnits="userSpaceOnUse" color-interpolation-filters="sRGB">
<feFlood flood-opacity="0" result="BackgroundImageFix"/>
<feBlend mode="normal" in="SourceGraphic" in2="BackgroundImageFix" result="shape"/>
<feColorMatrix in="SourceAlpha" type="matrix" values="0 0 0 0 0 0 0 0 0 0 0 0 0 0 0 0 0 0 127 0" result="hardAlpha"/>
<feOffset dy="4"/>
<feGaussianBlur stdDeviation="2"/>
<feComposite in2="hardAlpha" operator="arithmetic" k2="-1" k3="1"/>
<feColorMatrix type="matrix" values="0 0 0 0 0 0 0 0 0 0 0 0 0 0 0 0 0 0 0.25 0"/>
<feBlend mode="normal" in2="shape" result="effect1_innerShadow_194_2"/>
</filter>
</defs>
</svg>
