<?xml version="1.0" standalone="no"?>
<!DOCTYPE svg PUBLIC "-//W3C//DTD SVG 20010904//EN"
 "http://www.w3.org/TR/2001/REC-SVG-20010904/DTD/svg10.dtd">
<svg version="1.0" xmlns="http://www.w3.org/2000/svg"
 width="270.000000pt" height="270.000000pt" viewBox="0 0 270.000000 270.000000"
 preserveAspectRatio="xMidYMid meet">
<metadata>
Created by potrace 1.14, written by Peter Selinger 2001-2017
</metadata>
<g transform="translate(0.000000,270.000000) scale(0.100000,-0.100000)"
fill="#000000" stroke="none">
<path d="M1100 2177 c-72 -24 -150 -77 -201 -134 -49 -56 -69 -109 -69 -184 0
-57 3 -69 25 -89 21 -20 28 -22 50 -12 32 15 40 48 20 94 -34 83 -8 179 68
243 99 85 254 100 375 35 106 -56 171 -149 193 -279 26 -146 -50 -318 -183
-413 -28 -20 -28 -20 -91 1 -34 11 -79 22 -99 26 -112 16 -108 14 -108 43 0
95 50 337 87 420 38 87 25 119 -36 88 -83 -44 -125 -169 -137 -413 -6 -112
-10 -133 -23 -133 -9 0 -31 -9 -48 -20 -57 -34 -41 -94 32 -117 33 -11 27 12
60 -235 17 -127 49 -248 67 -248 7 0 9 16 5 48 -4 26 -10 131 -13 233 l-7 186
69 6 c38 4 102 16 143 27 l74 21 34 -33 c42 -40 70 -93 79 -147 6 -37 4 -41
-13 -41 -37 0 -47 -25 -36 -86 9 -52 8 -58 -13 -84 -33 -38 -96 -62 -142 -54
-47 9 -99 31 -134 56 -16 11 -28 15 -28 9 0 -21 60 -78 112 -106 44 -25 65
-30 121 -30 37 0 67 -3 67 -6 0 -14 -33 -86 -52 -111 -29 -42 -7 -33 38 15 46
48 103 126 128 175 20 38 69 72 96 65 15 -4 16 -10 9 -41 -13 -57 -11 -189 5
-225 18 -43 68 -85 112 -93 51 -9 121 20 172 73 50 52 57 82 7 33 -28 -27 -44
-34 -89 -38 -48 -4 -57 -1 -80 21 -36 37 -42 87 -21 193 10 51 15 99 12 108
-8 20 -66 46 -101 46 -48 0 -56 9 -56 64 0 71 -37 142 -107 206 -30 27 -60 50
-66 50 -6 0 17 17 52 38 70 41 151 123 182 183 101 198 32 428 -158 531 -109
60 -269 74 -383 35z m-110 -777 c0 -27 -2 -50 -5 -50 -4 0 -20 7 -36 16 -37
19 -36 52 1 71 38 19 40 17 40 -37z m251 24 c26 -8 51 -18 54 -23 11 -19 -203
-76 -221 -59 -3 4 -3 30 1 58 l7 52 55 -7 c30 -4 77 -13 104 -21z"/>
</g>
</svg>
